<svg xmlns="http://www.w3.org/2000/svg" width="933.333" height="933.333" version="1" viewBox="0 0 700 700"><path d="M27.2 27.3L0 54.5V700h645.5l27.3-27.3 27.2-27.2V0H54.5L27.2 27.3zM631 377.5V686H14V69h617v308.5z"/><path d="M174 371.9V611h66V419h47.8c35.8 0 50.9-.4 60.4-1.5 28.8-3.4 53.9-11.4 72-23 27.6-17.8 44.7-42.9 52.2-76.7 6.8-30.7 5.5-67.8-3.3-95.8-13.4-42.5-47-71.3-96.6-82.8-22.7-5.3-26.1-5.5-115.2-5.9l-83.3-.4v239zm157.5-183.8c31.9 3.9 55.4 18.9 67.6 43.1 7.1 14.1 10.6 35.9 8.9 55.6-3.2 35.7-21.5 60.9-52.7 72.1-15.9 5.8-20.5 6.3-70 6.8l-45.3.5V187h41.3c23.9 0 45 .5 50.2 1.1z"/></svg>